<?xml version="1.0" encoding="utf-8"?>
<!-- Generator: Adobe Illustrator 15.1.0, SVG Export Plug-In . SVG Version: 6.00 Build 0)  -->
<!DOCTYPE svg PUBLIC "-//W3C//DTD SVG 1.1//EN" "http://www.w3.org/Graphics/SVG/1.1/DTD/svg11.dtd">
<svg version="1.1" id="Layer_1" xmlns="http://www.w3.org/2000/svg" xmlns:xlink="http://www.w3.org/1999/xlink" x="0px" y="0px"
	 width="322.935px" height="200px" viewBox="0 0 322.935 200" enable-background="new 0 0 322.935 200" xml:space="preserve">
<path fill="#EE7D11" d="M160,100C160,44.771,204.771,0,260,0c23.849,0,45.748,8.349,62.935,22.283l-25.169,31.09
	C287.453,45.011,274.312,40,260,40c-33.138,0-60,26.863-60,60c0,55.229-44.771,100-100,100c-23.849,0-45.748-8.349-62.935-22.283
	l25.171-31.09C72.548,154.99,85.688,160,100,160C133.138,160,160,133.137,160,100"/>
<path fill="#004D95" d="M26.121,167.396C9.896,149.619,0,125.965,0,100C0,44.771,44.771,0,100,0
	c27.215,0,51.891,10.872,69.921,28.508c-8.911,11.213-15.922,23.895-20.168,37.945C138.971,50.493,120.711,40,100,40
	c-33.138,0-60,26.863-60,60c0,13.377,4.378,25.731,11.778,35.709L26.121,167.396z"/>
<rect x="215" y="80" fill="#004D95" width="80" height="40"/>
<path fill="#004D95" d="M260,160c14.312,0,27.453-5.011,37.766-13.373l25.169,31.09C305.748,191.651,283.849,200,260,200
	c-27.215,0-51.891-10.872-69.921-28.508c8.91-11.212,15.768-24.126,20.014-38.175C220.854,149.406,239.189,160,260,160z"/>
</svg>
