<?xml version="1.0" encoding="UTF-8"?>
<svg xmlns="http://www.w3.org/2000/svg" xmlns:xlink="http://www.w3.org/1999/xlink" width="1100pt" height="800pt" viewBox="0 0 1100 800" version="1.1">
<g id="surface1">
<rect x="0" y="0" width="1100" height="800" style="fill:rgb(100%,100%,100%);fill-opacity:1;stroke:none;"/>
<path style=" stroke:none;fill-rule:nonzero;fill:rgb(94.53125%,94.921875%,94.921875%);fill-opacity:1;" d="M 517.023438 668.117188 C 487.914063 668.203125 458.804688 668.878906 429.746094 672.011719 C 418.789063 673.191406 408.0625 675.785156 397.085938 676.832031 C 375.148438 678.925781 353.605469 682.828125 331.597656 684.628906 C 313.867188 686.074219 296.070313 686.929688 278.394531 688.769531 C 261.824219 690.492188 243.480469 690.097656 227.035156 687.246094 C 214.863281 685.140625 202.632813 683.953125 190.664063 680.566406 C 177.273438 676.777344 162.730469 674.066406 148.78125 674.164063 C 128.890625 674.304688 109.515625 674.320313 90.480469 681.011719 C 83.796875 683.359375 75.617188 687.21875 70.539063 692.148438 C 58.925781 703.429688 57.351563 731.578125 68.953125 743.28125 C 88.488281 762.972656 130.183594 770.699219 157.566406 771.066406 C 187.574219 771.464844 216.726563 769.308594 246.777344 768.039063 C 274.703125 766.859375 302.558594 765.183594 330.527344 765.242188 C 387.65625 765.363281 444.789063 765.242188 501.816406 761.546875 C 555.390625 758.074219 609.101563 759.265625 662.792969 759.265625 C 717.855469 759.265625 772.539063 759.683594 827.203125 766.773438 C 851.019531 769.859375 875.285156 770.941406 899.222656 773.105469 C 920.65625 775.042969 941.257813 773.066406 962.609375 771.273438 C 980.539063 769.773438 998.351563 765.3125 1014.640625 757.773438 C 1027.53125 751.804688 1050.519531 733.265625 1054.46875 719.019531 C 1065.558594 679.085938 898.253906 680.046875 872.566406 680.136719 C 843.828125 680.238281 814.863281 681.152344 786.152344 680.089844 C 774.074219 679.644531 762.171875 677.359375 750.386719 674.855469 C 738.644531 672.355469 726.8125 672.992188 714.90625 671.941406 C 665.25 667.570313 615.484375 668.210938 565.671875 668.210938 C 549.460938 668.210938 533.242188 668.070313 517.023438 668.117188 "/>
<path style=" stroke:none;fill-rule:nonzero;fill:rgb(23.143005%,27.050781%,35.301208%);fill-opacity:1;" d="M 286.761719 571.652344 L 289.328125 631.15625 L 281.808594 732.332031 L 270.554688 733.132813 L 256.878906 641.238281 L 237.964844 563.480469 L 286.761719 571.652344 "/>
<path style=" stroke:none;fill-rule:nonzero;fill:rgb(18.041992%,21.166992%,26.660156%);fill-opacity:1;" d="M 270.953125 737.875 L 283.558594 743.09375 L 289.210938 736.574219 L 282.691406 730.921875 L 270.523438 731.789063 L 270.953125 737.875 "/>
<path style=" stroke:none;fill-rule:nonzero;fill:rgb(23.143005%,27.050781%,35.301208%);fill-opacity:1;" d="M 207.101563 550.597656 L 204.628906 595.574219 L 211.957031 729.3125 L 223.226563 729.875 L 240.113281 642.160156 L 255.007813 545.972656 L 207.101563 550.597656 "/>
<path style=" stroke:none;fill-rule:nonzero;fill:rgb(18.041992%,21.166992%,26.660156%);fill-opacity:1;" d="M 222.921875 734.621094 L 210.433594 740.105469 L 204.644531 733.710938 L 211.042969 727.921875 L 223.226563 728.53125 L 222.921875 734.621094 "/>
<path style=" stroke:none;fill-rule:nonzero;fill:rgb(80.076599%,82.421875%,85.15625%);fill-opacity:1;" d="M 272.613281 418.09375 L 237.453125 414.328125 C 237.453125 414.328125 217.894531 416.417969 204.621094 462.871094 C 197.234375 488.714844 194.988281 529.4375 194.445313 560.480469 C 195.277344 564.90625 200.101563 584.304688 220.503906 581.015625 C 255.535156 575.363281 274.183594 569.714844 289.4375 572.539063 C 302.433594 575.363281 301.335938 557.472656 299.90625 543.816406 L 294.726563 501.566406 L 272.613281 418.09375 "/>
<path style=" stroke:none;fill-rule:nonzero;fill:rgb(66.601563%,40.380859%,33.325195%);fill-opacity:1;" d="M 265.824219 374.324219 C 256.960938 372.371094 247.839844 370.621094 238.96875 372.378906 C 237.023438 372.765625 234.941406 373.441406 233.886719 375.117188 C 233.476563 375.769531 233.261719 376.515625 233.0625 377.257813 C 230.824219 385.578125 227.984375 397.917969 233.460938 405.585938 C 234.507813 407.046875 235.910156 408.207031 237.417969 409.148438 C 239.433594 410.410156 241.664063 411.265625 243.972656 411.722656 C 243.496094 413.789063 242.832031 415.816406 241.988281 417.765625 C 244.019531 420.824219 253.480469 421.191406 255.230469 418.261719 C 255.328125 415.722656 255.429688 413.183594 255.523438 410.644531 C 256.679688 410.179688 257.789063 409.613281 258.835938 408.925781 C 262.882813 406.261719 265.546875 402.21875 267.09375 397.695313 C 268.777344 392.769531 271.152344 388.089844 272.691406 383.070313 C 273.253906 381.242188 273.695313 379.15625 272.730469 377.503906 C 271.710938 375.742188 269.496094 375.144531 267.511719 374.699219 C 266.949219 374.574219 266.386719 374.449219 265.824219 374.324219 "/>
<path style=" stroke:none;fill-rule:nonzero;fill:rgb(23.143005%,27.050781%,35.301208%);fill-opacity:1;" d="M 236.324219 379.085938 C 240.707031 376.269531 247.277344 375.054688 251.398438 375.355469 C 263.851563 376.257813 268.410156 385.398438 269.078125 396.851563 C 272.507813 392.488281 278.945313 387.003906 279.335938 381.394531 C 279.652344 376.804688 279.015625 370.539063 276.445313 366.574219 C 274.035156 362.863281 267.882813 360.824219 264.222656 358.675781 C 260.769531 356.648438 257.316406 354.621094 253.867188 352.59375 C 253.148438 352.171875 252.410156 351.742188 251.59375 351.601563 C 250.621094 351.433594 249.632813 351.679688 248.679688 351.925781 C 240.523438 354.035156 232.367188 356.140625 224.214844 358.25 C 222.644531 358.65625 220.859375 359.246094 220.285156 360.757813 C 219.933594 361.679688 220.140625 362.703125 220.351563 363.667969 C 221.273438 367.902344 223.054688 372.230469 223.492188 376.519531 C 223.992188 379.007813 225.476563 391.78125 229.890625 390.308594 C 231.183594 388.1875 231.378906 385.578125 232.386719 383.3125 C 233.132813 381.632813 234.550781 380.226563 236.324219 379.085938 "/>
<path style=" stroke:none;fill-rule:nonzero;fill:rgb(80.076599%,82.421875%,85.15625%);fill-opacity:1;" d="M 237.453125 414.328125 L 224.457031 418.28125 L 176.992188 468.007813 L 174.167969 484.394531 L 196.859375 521.855469 L 202.984375 508.125 L 193.382813 480.4375 L 208.636719 469.699219 L 228.980469 423.933594 L 237.453125 414.328125 "/>
<path style=" stroke:none;fill-rule:nonzero;fill:rgb(93.75%,93.75%,93.75%);fill-opacity:1;" d="M 647.808594 32.609375 L 513.289063 33.953125 L 419.117188 130.019531 L 420.460938 264.542969 L 516.527344 358.714844 L 651.050781 357.371094 L 745.222656 261.300781 L 743.878906 126.78125 L 647.808594 32.609375 "/>
<path style=" stroke:none;fill-rule:nonzero;fill:rgb(82.8125%,30.589294%,30.589294%);fill-opacity:1;" d="M 733.21875 131.320313 L 643.484375 43.355469 L 517.828125 44.609375 L 429.863281 134.347656 L 431.117188 260.003906 L 520.855469 347.964844 L 646.511719 346.710938 L 734.472656 256.976563 L 733.21875 131.320313 "/>
<path style=" stroke:none;fill-rule:nonzero;fill:rgb(100%,100%,100%);fill-opacity:1;" d="M 515.628906 179.8125 L 515.640625 181.105469 L 501.503906 181.246094 L 501.492188 180.277344 C 501.433594 174.015625 497.613281 170.0625 491.355469 170.121094 C 484.660156 170.1875 481.027344 173.570313 481.070313 178.105469 C 481.222656 193.105469 517.070313 183.898438 517.34375 211.097656 C 517.511719 228.039063 506.785156 234.730469 491.460938 234.886719 C 477.859375 235.019531 465.804688 227.367188 465.652344 212.152344 C 465.644531 211.289063 465.742188 210.316406 465.734375 209.777344 L 480.089844 209.632813 C 480.09375 209.847656 479.996094 210.820313 480 211.359375 C 480.070313 218.375 484.433594 223.082031 491.988281 223.007813 C 500.300781 222.921875 503.171875 218.46875 503.128906 214.152344 C 502.949219 196.558594 467.117188 207.386719 466.835938 179.21875 C 466.695313 165.1875 478.285156 158.378906 491.34375 158.25 C 504.511719 158.117188 515.476563 164.59375 515.628906 179.8125 "/>
<path style=" stroke:none;fill-rule:nonzero;fill:rgb(100%,100%,100%);fill-opacity:1;" d="M 573.394531 171.03125 L 555.050781 171.214844 L 555.664063 232.949219 L 541.851563 233.085938 L 541.234375 171.351563 L 522.886719 171.535156 L 522.765625 159.230469 L 573.273438 158.726563 L 573.394531 171.03125 "/>
<path style=" stroke:none;fill-rule:nonzero;fill:rgb(100%,100%,100%);fill-opacity:1;" d="M 591.75 192.867188 L 591.804688 198.265625 C 591.949219 213.050781 597.542969 221.953125 608.554688 221.84375 C 619.5625 221.734375 624.976563 212.722656 624.828125 197.933594 L 624.773438 192.539063 C 624.628906 177.753906 619.03125 168.851563 608.023438 168.960938 C 597.015625 169.070313 591.601563 178.082031 591.75 192.867188 Z M 639.046875 195.09375 C 639.308594 221.214844 627.773438 233.523438 608.671875 233.714844 C 589.566406 233.90625 577.789063 221.824219 577.527344 195.707031 C 577.269531 169.589844 588.804688 157.277344 607.90625 157.085938 C 627.011719 156.894531 638.785156 168.976563 639.046875 195.09375 "/>
<path style=" stroke:none;fill-rule:nonzero;fill:rgb(100%,100%,100%);fill-opacity:1;" d="M 662.761719 170.140625 L 662.96875 190.96875 L 674.191406 190.859375 C 680.886719 190.789063 684.515625 186.652344 684.445313 179.855469 C 684.386719 173.8125 680.570313 169.960938 673.984375 170.027344 Z M 663.089844 203.164063 L 663.378906 231.875 L 649.5625 232.011719 L 648.824219 157.976563 L 675.265625 157.710938 C 690.59375 157.558594 698.5625 166.867188 698.691406 179.710938 C 698.832031 193.636719 689.640625 202.898438 675.71875 203.039063 L 663.089844 203.164063 "/>
<path style=" stroke:none;fill-rule:nonzero;fill:rgb(18.041992%,21.166992%,26.660156%);fill-opacity:1;" d="M 813.023438 727.980469 L 813.929688 735.003906 L 800.78125 743.832031 L 792.855469 737.710938 L 798.976563 729.785156 L 812.121094 720.957031 L 813.023438 727.980469 "/>
<path style=" stroke:none;fill-rule:nonzero;fill:rgb(80.076599%,82.421875%,85.15625%);fill-opacity:1;" d="M 813.46875 725.621094 L 803.332031 636.039063 L 815.527344 535.753906 L 812.785156 514.421875 L 758.308594 512.355469 L 756.34375 547.074219 L 765.484375 636.179688 L 799.894531 730.199219 L 813.46875 725.621094 "/>
<path style=" stroke:none;fill-rule:nonzero;fill:rgb(80.076599%,82.421875%,85.15625%);fill-opacity:1;" d="M 718.332031 522.390625 L 718.1875 612.789063 L 736.386719 729.160156 L 749.480469 729.03125 L 756.683594 621.414063 L 773.53125 513.699219 L 718.332031 522.390625 "/>
<path style=" stroke:none;fill-rule:nonzero;fill:rgb(18.041992%,21.166992%,26.660156%);fill-opacity:1;" d="M 749.460938 734.554688 L 735.367188 741.777344 L 728.21875 734.769531 L 735.230469 727.613281 L 749.390625 727.472656 L 749.460938 734.554688 "/>
<path style=" stroke:none;fill-rule:nonzero;fill:rgb(49.804688%,77.34375%,63.867188%);fill-opacity:1;" d="M 821.164063 553.136719 C 821.039063 549.21875 820.824219 545.949219 820.792969 544.78125 C 820.511719 534.273438 819.574219 523.789063 818.261719 513.355469 C 817.082031 504.003906 815.59375 480.792969 813.992188 471.5 C 812.671875 463.828125 808.066406 444.675781 804.742188 437.5625 C 796.46875 419.863281 799.023438 418.226563 762.6875 412.972656 C 746.761719 410.671875 742.996094 420.59375 729.980469 432.007813 C 728.695313 433.132813 728.765625 439.835938 728.46875 441.609375 C 727.941406 444.734375 727.378906 447.855469 726.734375 450.960938 C 726.230469 453.402344 725.671875 455.835938 725.042969 458.253906 L 725.046875 458.253906 C 725.046875 458.253906 714.113281 507.992188 706.886719 518.558594 C 699.65625 529.121094 684.726563 543.890625 709.703125 552.90625 C 714.132813 554.339844 718.585938 555.699219 723.191406 556.429688 C 723.191406 556.429688 743.621094 554.15625 754.128906 554.238281 C 763.804688 554.308594 773.519531 555.289063 783.03125 556.929688 C 789.394531 557.992188 795.886719 559.535156 801.574219 562.507813 C 807.003906 565.34375 810.921875 569.515625 816.429688 572.453125 C 816.953125 572.730469 817.523438 573.019531 818.117188 572.9375 C 821.28125 572.496094 821.429688 561.382813 821.164063 553.136719 "/>
<path style=" stroke:none;fill-rule:nonzero;fill:rgb(91.796875%,75.78125%,64.256287%);fill-opacity:1;" d="M 762.644531 417.964844 C 764.480469 418.867188 768.808594 419.195313 773.320313 417.425781 C 774.230469 417.070313 774.84375 416.191406 774.832031 415.214844 C 774.796875 412.472656 774.574219 409.734375 774.171875 407.019531 C 777.558594 405.832031 781.472656 404.046875 782.0625 400.507813 C 782.246094 399.390625 782.054688 398.25 781.859375 397.136719 C 781.066406 392.53125 780.269531 387.929688 779.472656 383.320313 C 779.199219 381.730469 778.90625 380.089844 778.039063 378.726563 C 776.519531 376.332031 773.570313 375.28125 770.773438 374.800781 C 763.644531 373.5625 755.875 375.105469 750.34375 379.777344 C 748.875 381.019531 747.542969 382.515625 746.894531 384.328125 C 745.894531 387.121094 746.644531 390.207031 747.394531 393.078125 C 748.09375 395.730469 748.789063 398.382813 749.484375 401.035156 C 750.285156 404.085938 751.441406 407.550781 754.382813 408.695313 C 755.941406 409.300781 757.78125 409.125 759.195313 410.023438 C 761.6875 411.605469 761.351563 415.3125 762.644531 417.964844 "/>
<path style=" stroke:none;fill-rule:nonzero;fill:rgb(23.143005%,27.050781%,35.301208%);fill-opacity:1;" d="M 721.488281 372.039063 C 720.789063 370.890625 720.035156 369.777344 719.191406 368.738281 C 717.363281 366.484375 715.109375 364.550781 713.636719 362.050781 C 712.164063 359.546875 711.648438 356.15625 713.414063 353.851563 C 714.554688 352.363281 716.402344 351.621094 718.199219 351.09375 C 724.121094 349.351563 730.511719 349.230469 736.492188 350.753906 C 742.191406 352.203125 747.289063 354.605469 753.027344 352.464844 C 758.414063 350.449219 762.308594 351.269531 767.941406 353.28125 C 774.035156 355.457031 782.21875 355.96875 787.734375 359.039063 C 790.039063 360.320313 791.878906 362.324219 793.308594 364.539063 C 798.273438 372.203125 798.300781 382.777344 793.378906 390.472656 C 792.273438 392.195313 790.949219 393.773438 789.5625 395.28125 C 786.6875 398.398438 783.246094 402.253906 779.289063 403.40625 C 779.195313 399.867188 782.417969 388.710938 779.703125 385.8125 C 775.390625 381.207031 765.636719 382.8125 760.289063 383.945313 C 754.453125 385.183594 749.25 389.316406 743.464844 390.199219 C 739.300781 390.835938 733.988281 388.792969 730.449219 386.640625 C 726.078125 383.984375 724.046875 376.234375 721.488281 372.039063 "/>
<path style=" stroke:none;fill-rule:nonzero;fill:rgb(49.804688%,77.34375%,63.867188%);fill-opacity:1;" d="M 792.855469 419.773438 L 815.527344 439.640625 L 840.820313 492.792969 L 808.875 530.800781 L 803.378906 509.546875 L 792.855469 419.773438 "/>
<path style=" stroke:none;fill-rule:nonzero;fill:rgb(91.796875%,75.78125%,64.256287%);fill-opacity:1;" d="M 646.023438 435.046875 L 634.761719 427.796875 L 637.652344 422.847656 L 646.464844 426.105469 L 646.742188 423.132813 L 655.621094 430.511719 L 653.3125 436.058594 L 646.023438 435.046875 "/>
<path style=" stroke:none;fill-rule:nonzero;fill:rgb(49.804688%,77.34375%,63.867188%);fill-opacity:1;" d="M 751.460938 414.628906 L 692.710938 438.714844 L 655.621094 430.511719 L 652 437.605469 L 685.824219 462.507813 L 732.449219 456.957031 L 751.460938 414.628906 "/>
<path style=" stroke:none;fill-rule:nonzero;fill:rgb(18.041992%,21.166992%,26.660156%);fill-opacity:1;" d="M 567.175781 733.917969 L 566.859375 740.066406 L 578.839844 746.847656 L 585.304688 741.015625 L 579.472656 734.550781 L 567.492188 727.769531 L 567.175781 733.917969 "/>
<path style=" stroke:none;fill-rule:nonzero;fill:rgb(25.097656%,28.637695%,37.255859%);fill-opacity:1;" d="M 557.40625 547.324219 L 556.445313 565.996094 L 577.183594 648.195313 L 566.636719 731.902344 L 578.703125 734.96875 L 612.21875 634.394531 L 612.816406 604.128906 L 604.492188 541.910156 L 557.40625 547.324219 "/>
<path style=" stroke:none;fill-rule:nonzero;fill:rgb(25.097656%,28.637695%,37.255859%);fill-opacity:1;" d="M 649.222656 545.558594 L 658.511719 623.59375 L 654.601563 725.914063 L 643.28125 727.132813 L 626.152344 634.941406 L 600.679688 543.652344 L 649.222656 545.558594 "/>
<path style=" stroke:none;fill-rule:nonzero;fill:rgb(18.041992%,21.166992%,26.660156%);fill-opacity:1;" d="M 643.859375 731.898438 L 656.757813 736.707031 L 662.222656 729.925781 L 655.445313 724.460938 L 643.199219 725.777344 L 643.859375 731.898438 "/>
<path style=" stroke:none;fill-rule:nonzero;fill:rgb(27.830505%,30.589294%,73.242188%);fill-opacity:1;" d="M 653.792969 532.566406 C 642.132813 508.824219 637.476563 482.789063 631.367188 457.179688 C 629.5625 449.625 627.691406 441.90625 623.488281 435.375 C 618.660156 427.871094 611.996094 424.511719 604.609375 423.21875 C 595.210938 421.574219 584.648438 423.277344 575.238281 424.066406 C 569.542969 441.855469 565.835938 431.761719 559.148438 449.199219 C 557.765625 452.816406 553.828125 484.128906 552.371094 487.714844 C 552.371094 487.714844 537.007813 535.824219 541.925781 573.878906 C 541.972656 574.253906 542.015625 574.621094 542.058594 574.988281 C 543.050781 575.160156 544.003906 575.332031 544.890625 575.511719 C 558.152344 578.199219 571.683594 579.644531 585.21875 579.46875 C 597.226563 579.3125 609.234375 577.859375 620.898438 574.976563 C 636.859375 571.027344 655.816406 572.640625 668.863281 562.121094 C 665.039063 554.328125 657.617188 540.355469 653.792969 532.566406 "/>
<path style=" stroke:none;fill-rule:nonzero;fill:rgb(27.830505%,30.589294%,73.242188%);fill-opacity:1;" d="M 516.40625 429.351563 L 529.519531 358.15625 L 540.664063 360.3125 L 541.175781 414.03125 L 516.40625 429.351563 "/>
<path style=" stroke:none;fill-rule:nonzero;fill:rgb(27.830505%,30.589294%,73.242188%);fill-opacity:1;" d="M 516.40625 429.351563 L 581.484375 471.761719 L 572.234375 428.359375 L 532.253906 410.105469 L 516.40625 429.351563 "/>
<path style=" stroke:none;fill-rule:nonzero;fill:rgb(66.601563%,40.380859%,33.325195%);fill-opacity:1;" d="M 600.65625 392.992188 C 592.210938 380.265625 570.464844 380.957031 570.148438 398.511719 C 570.054688 403.785156 570.605469 409.203125 572.9375 413.9375 C 575.269531 418.667969 579.632813 422.632813 584.847656 423.410156 L 584.9375 423.421875 C 585.109375 424.765625 585.28125 426.113281 585.453125 427.460938 C 585.488281 427.746094 585.539063 428.066406 585.761719 428.257813 C 586.011719 428.472656 586.382813 428.445313 586.714844 428.40625 C 588.324219 428.21875 589.9375 428.027344 591.546875 427.835938 C 592.347656 427.738281 593.175781 427.636719 593.851563 427.195313 C 595.324219 426.238281 595.472656 424.117188 595.078125 422.402344 C 594.984375 421.992188 594.871094 421.582031 594.753906 421.171875 C 603.058594 415.535156 606.179688 401.3125 600.65625 392.992188 "/>
<path style=" stroke:none;fill-rule:nonzero;fill:rgb(23.143005%,27.050781%,35.301208%);fill-opacity:1;" d="M 566.074219 378.011719 C 562.257813 378.890625 560.558594 383.59375 557.949219 386.738281 C 555.78125 389.351563 552.800781 390.988281 550.429688 393.382813 C 548.054688 395.773438 546.269531 399.523438 547.511719 402.855469 C 544.007813 402.484375 540.25 402.167969 537.234375 404.074219 C 534.226563 405.980469 532.726563 411.058594 535.28125 413.757813 C 537.570313 416.171875 541.585938 415.378906 543.9375 417.714844 C 547.664063 421.414063 545.0625 430.449219 549.863281 431.988281 C 551.015625 432.359375 552.273438 432.0625 553.421875 432.460938 C 554.847656 432.953125 555.804688 434.382813 556.824219 435.589844 C 561.457031 441.054688 569.433594 442.679688 575.386719 439.371094 C 578.574219 436.007813 580.203125 431.003906 579.902344 426.128906 C 579.535156 420.25 576.027344 419.523438 573.636719 414.8125 C 571.019531 409.660156 570.5 403.324219 572.238281 397.847656 C 573.367188 394.28125 575.59375 390.71875 578.78125 389.101563 C 580.082031 388.441406 580.097656 389.734375 581.203125 388.097656 C 581.679688 387.394531 581.902344 385.351563 581.769531 384.46875 C 576.996094 382.972656 571.097656 376.855469 566.074219 378.011719 "/>
<path style=" stroke:none;fill-rule:nonzero;fill:rgb(23.143005%,27.050781%,35.301208%);fill-opacity:1;" d="M 606.90625 369.675781 C 608.972656 369.460938 610.964844 368.59375 613.039063 368.675781 C 616.160156 368.796875 617.085938 371.625 618.78125 373.730469 C 620.65625 376.058594 623.269531 379.152344 625.835938 380.53125 C 627.683594 381.523438 629.785156 381.679688 631.773438 382.226563 C 633.765625 382.769531 635.847656 383.914063 636.625 385.996094 C 637.367188 387.972656 636.738281 390.253906 637.3125 392.289063 C 638.226563 395.304688 639.320313 396.605469 639.589844 399.945313 C 639.730469 401.667969 639.851563 403.507813 639.105469 405.011719 C 638.125 406.996094 635.941406 407.820313 633.910156 408.25 C 631.878906 408.679688 629.699219 408.925781 628.066406 410.296875 C 624.523438 413.269531 626.90625 417.09375 627.175781 420.980469 C 627.589844 426.890625 622.691406 432.355469 617.292969 432.3125 C 612.710938 432.28125 608.617188 428.585938 607.015625 423.980469 C 606.214844 421.671875 606.289063 419.199219 605.460938 416.902344 C 604.664063 414.6875 602.238281 412.132813 603.542969 409.613281 C 603.859375 409 604.394531 408.535156 604.636719 407.878906 C 604.835938 407.351563 604.824219 406.753906 604.742188 406.183594 C 604.453125 404.203125 603.28125 402.382813 601.667969 401.414063 C 600.507813 400.71875 599.121094 400.425781 598.179688 399.40625 C 597.101563 398.238281 596.894531 396.460938 596.390625 394.898438 C 595.164063 391.132813 591.734375 388.3125 588.109375 388.09375 C 585.71875 387.949219 583.683594 388.113281 581.355469 387.378906 C 581.003906 387.269531 575.589844 385.292969 575.785156 386.101563 C 575.441406 384.695313 575.765625 383.222656 576.132813 381.839844 C 576.738281 379.566406 577.507813 377.285156 578.925781 375.511719 C 583.5 369.777344 586.898438 377.597656 591.238281 374.6875 C 592.285156 373.988281 592.734375 372.597656 593.519531 371.566406 C 595.003906 369.617188 597.5625 369.105469 599.902344 369.210938 C 602.242188 369.316406 604.582031 369.914063 606.90625 369.675781 "/>
<path style=" stroke:none;fill-rule:nonzero;fill:rgb(27.830505%,30.589294%,73.242188%);fill-opacity:1;" d="M 623.40625 463.257813 C 624.636719 468.679688 629.113281 473.8125 633.058594 479.460938 C 637.691406 486.097656 642.324219 492.730469 646.960938 499.367188 L 631.882813 547.160156 L 641.296875 550.394531 L 668.46875 502.710938 C 668.441406 483.664063 651.441406 473.902344 646.980469 463.210938 C 644.65625 457.644531 626.8125 440.425781 623.488281 435.375 C 618.601563 427.941406 625.25 440.5 619.269531 446.542969 C 614.261719 451.605469 622.4375 458.957031 623.40625 463.257813 "/>
<path style=" stroke:none;fill-rule:nonzero;fill:rgb(66.601563%,40.380859%,33.325195%);fill-opacity:1;" d="M 638.664063 553.269531 L 636.722656 555.886719 L 632.183594 554.800781 L 628.410156 557.296875 L 627.515625 554.867188 L 634.097656 548.023438 L 639.148438 549.746094 L 638.664063 553.269531 "/>
<path style=" stroke:none;fill-rule:nonzero;fill:rgb(66.601563%,40.380859%,33.325195%);fill-opacity:1;" d="M 532.035156 354.492188 L 536.917969 346.355469 L 539.4375 352.058594 L 542.269531 350.21875 L 543.335938 353.449219 L 539.726563 360.15625 L 532.140625 358.6875 L 532.035156 354.492188 "/>
<path style=" stroke:none;fill-rule:nonzero;fill:rgb(18.041992%,21.166992%,26.660156%);fill-opacity:1;" d="M 421.242188 721.464844 L 433.703125 728.316406 L 432.621094 734.164063 L 410.480469 731.125 L 411.667969 722.699219 L 421.242188 721.464844 "/>
<path style=" stroke:none;fill-rule:nonzero;fill:rgb(18.041992%,21.166992%,26.660156%);fill-opacity:1;" d="M 364.898438 727.882813 L 356.230469 727.777344 L 354.113281 735.113281 L 354.332031 735.179688 L 354.277344 735.183594 L 368.714844 743.484375 L 375.535156 744.152344 L 376.296875 736.355469 L 374.4375 735.03125 L 364.898438 727.882813 "/>
<path style=" stroke:none;fill-rule:nonzero;fill:rgb(27.830505%,30.589294%,73.242188%);fill-opacity:1;" d="M 391.621094 589.636719 C 393.015625 589.492188 396.8125 639.363281 396.8125 639.363281 L 369.835938 729.996094 L 354.28125 726.933594 L 363.757813 636.441406 C 363.757813 636.441406 330.828125 598.472656 340.3125 570.105469 C 354.640625 577.054688 391.621094 589.636719 391.621094 589.636719 "/>
<path style=" stroke:none;fill-rule:nonzero;fill:rgb(27.830505%,30.589294%,73.242188%);fill-opacity:1;" d="M 430.488281 590.058594 L 433.636719 634.523438 L 424.957031 723.027344 L 408.945313 722.210938 C 408.945313 722.210938 405.085938 638.386719 403.5 636.675781 C 401.914063 634.964844 388.277344 590.980469 388.277344 590.980469 L 430.488281 590.058594 "/>
<path style=" stroke:none;fill-rule:nonzero;fill:rgb(55.664063%,76.5625%,79.6875%);fill-opacity:1;" d="M 409.4375 610.351563 C 358.589844 609.417969 354.855469 583.761719 343.660156 580.960938 C 332.464844 578.160156 338.300781 564.828125 338.300781 564.828125 C 338.300781 564.828125 340.421875 558.882813 341.328125 555.769531 C 347.855469 533.382813 367.464844 504.644531 367.472656 504.632813 C 377.144531 491.4375 386.851563 479.78125 395.230469 472.742188 C 420.15625 451.808594 446.855469 450.832031 446.855469 450.832031 C 485.3125 462.855469 471.742188 480.9375 472.183594 485.695313 C 459.53125 497.289063 450.371094 514.660156 443.613281 533.3125 C 440.429688 543.191406 436.671875 560.253906 439.296875 580.960938 C 440.140625 587.605469 441.113281 593.363281 442.078125 598.378906 C 442.265625 604.925781 435.96875 610.773438 409.4375 610.351563 "/>
<path style=" stroke:none;fill-rule:nonzero;fill:rgb(100%,100%,100%);fill-opacity:1;" d="M 447.003906 454.886719 C 447.003906 454.886719 455.566406 450.195313 460.867188 458.351563 C 467.300781 468.25 430.921875 512.898438 431.785156 608.390625 C 422.253906 610.320313 397.6875 614.929688 372.351563 602.972656 C 378.105469 574.601563 402.949219 489.039063 447.003906 454.886719 "/>
<path style=" stroke:none;fill-rule:nonzero;fill:rgb(92.1875%,80.859375%,69.334412%);fill-opacity:1;" d="M 482.3125 595.421875 L 492.261719 604.648438 L 496.390625 600.570313 L 490.976563 592.742188 L 493.824219 591.71875 L 484.351563 584.855469 L 479.484375 588.519531 L 482.3125 595.421875 "/>
<path style=" stroke:none;fill-rule:nonzero;fill:rgb(55.664063%,76.5625%,79.6875%);fill-opacity:1;" d="M 472.09375 468.257813 L 475.566406 476.308594 L 472.25 535.53125 C 472.25 535.53125 489.78125 586.226563 489.308594 586.226563 C 488.832031 586.226563 477.460938 590.015625 477.460938 590.015625 L 451.878906 538.847656 L 451.878906 507.578125 L 472.09375 468.257813 "/>
<path style=" stroke:none;fill-rule:nonzero;fill:rgb(23.143005%,27.050781%,35.301208%);fill-opacity:1;" d="M 465.820313 424.734375 C 470.128906 428.097656 473.867188 435.242188 472.386719 440.867188 C 471.671875 443.574219 469.714844 445.390625 469.0625 448.320313 C 467.761719 454.09375 457.726563 458.34375 461.945313 465.042969 C 464.117188 468.484375 468.320313 469.941406 472.203125 471.15625 C 472.675781 471.304688 473.167969 471.453125 473.652344 471.359375 C 474.449219 471.199219 474.984375 470.40625 475.132813 469.605469 C 475.28125 468.808594 475.132813 467.988281 475.046875 467.179688 C 474.160156 458.730469 479.882813 450.269531 482 442.28125 C 484.117188 434.308594 484.007813 425.207031 478.480469 418.585938 C 473.769531 419.023438 471.859375 418.113281 468.835938 421.753906 L 465.820313 424.734375 "/>
<path style=" stroke:none;fill-rule:nonzero;fill:rgb(91.796875%,75.78125%,64.256287%);fill-opacity:1;" d="M 455.730469 458.535156 C 461.339844 458.976563 466.816406 455.898438 470.375 451.539063 C 473.929688 447.179688 475.804688 441.683594 476.96875 436.179688 C 480.84375 417.859375 458.410156 411.933594 446.585938 423.140625 C 436.277344 432.90625 439.417969 457.253906 455.730469 458.535156 "/>
<path style=" stroke:none;fill-rule:nonzero;fill:rgb(23.143005%,27.050781%,35.301208%);fill-opacity:1;" d="M 427.800781 455.09375 C 430.78125 454.875 433.753906 454.566406 436.425781 452.636719 C 440.742188 449.519531 443.289063 442.496094 445.941406 438.046875 C 448.734375 433.359375 451.929688 428.328125 457.085938 426.539063 C 460.449219 425.371094 463.441406 426.132813 466.605469 427.398438 C 468.769531 428.269531 468.511719 429.117188 470.816406 428.726563 C 472.578125 428.425781 474.882813 426.28125 475.851563 424.871094 C 477.488281 422.492188 477.59375 419.308594 476.726563 416.554688 C 475.386719 412.316406 472.898438 409.445313 468.941406 407.683594 C 455.054688 401.488281 441.042969 405.382813 431.34375 417.417969 C 426.679688 423.203125 425.011719 431.121094 420.324219 436.605469 C 417.429688 439.992188 413.832031 441.546875 411.066406 445.28125 C 403.894531 454.984375 392.121094 466.296875 387.886719 477.664063 C 387.730469 478.085938 387.585938 478.5625 387.777344 478.96875 C 388.175781 479.789063 389.40625 479.507813 390.226563 479.097656 C 395 476.714844 399.773438 474.335938 404.550781 471.949219 C 406.425781 471.015625 408.324219 470.0625 409.871094 468.644531 C 413.71875 465.117188 415.050781 459.027344 419.71875 456.699219 C 422.265625 455.429688 425.035156 455.300781 427.800781 455.09375 "/>
<path style=" stroke:none;fill-rule:nonzero;fill:rgb(55.664063%,76.5625%,79.6875%);fill-opacity:1;" d="M 408.292969 479.152344 L 369.917969 470.152344 L 359.660156 419.148438 L 372.398438 420.261719 L 382.234375 453.570313 L 431.980469 454.988281 L 434.824219 458.78125 L 408.292969 479.152344 "/>
<path style=" stroke:none;fill-rule:nonzero;fill:rgb(92.1875%,80.859375%,69.334412%);fill-opacity:1;" d="M 370.351563 420.082031 L 369.097656 406.710938 L 359.625 399.46875 L 359.066406 403.367188 L 362.410156 406.710938 C 362.410156 406.710938 363.246094 410.609375 365.613281 412.5625 C 365.335938 414.789063 363.523438 419.527344 363.523438 419.527344 L 370.351563 420.082031 "/>
<path style=" stroke:none;fill-rule:nonzero;fill:rgb(92.1875%,68.943787%,26.660156%);fill-opacity:1;" d="M 1011.648438 464.691406 L 894.921875 347.96875 C 885.113281 338.160156 869.214844 338.160156 859.410156 347.96875 L 742.683594 464.691406 C 732.878906 474.5 732.878906 490.398438 742.683594 500.203125 L 859.410156 616.929688 C 869.214844 626.734375 885.113281 626.734375 894.921875 616.929688 L 1011.648438 500.203125 C 1021.449219 490.398438 1021.449219 474.5 1011.648438 464.691406 "/>
<path style=" stroke:none;fill-rule:nonzero;fill:rgb(23.143005%,27.050781%,35.301208%);fill-opacity:1;" d="M 931.636719 492.234375 L 931.636719 450.8125 C 931.636719 420.777344 907.199219 396.34375 877.164063 396.34375 C 847.128906 396.34375 822.691406 420.777344 822.691406 450.8125 L 822.691406 546.355469 L 849.355469 546.355469 L 849.355469 450.8125 C 849.355469 435.480469 861.828125 423.003906 877.164063 423.003906 C 892.5 423.003906 904.976563 435.480469 904.976563 450.8125 L 904.976563 492.234375 L 876.378906 492.234375 L 918.308594 546.355469 L 960.234375 492.234375 L 931.636719 492.234375 "/>
<path style=" stroke:none;fill-rule:nonzero;fill:rgb(93.75%,93.75%,93.75%);fill-opacity:1;" d="M 576.265625 512.320313 C 557 493.058594 531.386719 482.449219 504.144531 482.449219 C 476.898438 482.449219 451.285156 493.058594 432.023438 512.320313 C 412.757813 531.585938 402.148438 557.199219 402.148438 584.441406 C 402.148438 611.6875 412.757813 637.300781 432.023438 656.5625 C 451.285156 675.828125 476.898438 686.4375 504.144531 686.4375 C 531.386719 686.4375 557 675.828125 576.265625 656.5625 C 595.527344 637.300781 606.140625 611.6875 606.140625 584.441406 C 606.140625 557.199219 595.527344 531.585938 576.265625 512.320313 "/>
<path style=" stroke:none;fill-rule:nonzero;fill:rgb(82.8125%,30.589294%,30.589294%);fill-opacity:1;" d="M 598.933594 584.441406 C 598.933594 532.09375 556.496094 489.652344 504.144531 489.652344 C 451.792969 489.652344 409.351563 532.09375 409.351563 584.441406 C 409.351563 636.796875 451.792969 679.234375 504.144531 679.234375 C 556.496094 679.234375 598.933594 636.796875 598.933594 584.441406 "/>
<path style=" stroke:none;fill-rule:nonzero;fill:rgb(100%,100%,100%);fill-opacity:1;" d="M 576.433594 569.566406 L 431.855469 569.566406 L 431.855469 599.320313 L 576.433594 599.320313 L 576.433594 569.566406 "/>
<path style=" stroke:none;fill-rule:nonzero;fill:rgb(66.601563%,40.380859%,33.325195%);fill-opacity:1;" d="M 321.265625 324.753906 L 324.570313 308.867188 L 318.1875 303.109375 L 313.351563 308.828125 L 312.007813 315.296875 L 307.910156 316.0625 L 309.917969 327.15625 L 321.265625 324.753906 "/>
<path style=" stroke:none;fill-rule:nonzero;fill:rgb(80.076599%,82.421875%,85.15625%);fill-opacity:1;" d="M 272.097656 418.238281 L 301.078125 397.597656 L 309.917969 327.15625 L 321.265625 324.753906 L 320.785156 397.976563 L 312.8125 414.589844 L 278.671875 445.667969 L 272.097656 418.238281 "/>
<path style=" stroke:none;fill-rule:nonzero;fill:rgb(23.143005%,27.050781%,35.301208%);fill-opacity:1;" d="M 247.742188 501.007813 C 247.742188 459.082031 213.753906 425.09375 171.828125 425.09375 C 129.90625 425.09375 95.917969 459.082031 95.917969 501.007813 C 95.917969 542.929688 129.90625 576.917969 171.828125 576.917969 C 213.753906 576.917969 247.742188 542.929688 247.742188 501.007813 "/>
<path style=" stroke:none;fill-rule:nonzero;fill:rgb(100%,100%,100%);fill-opacity:1;" d="M 211.480469 487.050781 L 175.078125 458.847656 L 175.078125 477.371094 L 164.984375 477.371094 C 146.894531 477.371094 132.179688 492.085938 132.179688 510.175781 L 132.179688 543.164063 L 151.535156 543.164063 L 151.535156 510.175781 C 151.535156 502.761719 157.570313 496.730469 164.984375 496.730469 L 175.078125 496.730469 L 175.078125 515.25 L 211.480469 487.050781 "/>
<path style=" stroke:none;fill-rule:nonzero;fill:rgb(92.1875%,68.943787%,26.660156%);fill-opacity:1;" d="M 391.296875 328.484375 L 279.164063 126.738281 C 274.074219 117.582031 260.984375 117.367188 255.597656 126.355469 L 136.949219 324.339844 C 131.5625 333.324219 137.925781 344.765625 148.398438 344.9375 L 379.183594 348.699219 C 389.65625 348.871094 396.386719 337.640625 391.296875 328.484375 "/>
<path style=" stroke:none;fill-rule:nonzero;fill:rgb(23.143005%,27.050781%,35.301208%);fill-opacity:1;" d="M 249.71875 291.808594 L 279.648438 292.292969 L 279.164063 321.855469 L 249.234375 321.367188 Z M 256.53125 279.429688 L 249.167969 190.410156 L 283.5 191.152344 L 273.425781 279.703125 L 256.53125 279.429688 "/>
</g>
</svg>
